<svg version="1.1" id="Layer_1" xmlns="http://www.w3.org/2000/svg" xmlns:xlink="http://www.w3.org/1999/xlink" x="0px" y="0px"
	 width="100%" viewBox="0 0 570 630" enable-background="new 0 0 570 630" xml:space="preserve">
<path fill="#659AD2" opacity="1.000000" stroke="none" 
	d="
M1.000000,468.000000 
	C1.000000,366.312439 1.000000,264.624878 1.266412,162.795227 
	C2.396336,161.308060 3.134230,159.858795 4.147014,158.637482 
	C7.142902,155.024734 9.596220,150.412872 13.418980,148.127472 
	C32.813232,136.532776 52.517773,125.451073 72.222374,114.383293 
	C90.513603,104.109367 108.997513,94.178658 127.296982,83.919167 
	C155.813492,67.931534 184.210068,51.729958 212.726105,35.741455 
	C232.321198,24.754786 252.038040,13.985356 271.667297,3.059204 
	C272.298126,2.708059 272.563995,1.701196 273.000000,1.000001 
	C281.020905,1.000000 289.041809,1.000000 297.180969,1.250277 
	C298.629547,2.389957 299.900421,3.388530 301.299957,4.150905 
	C309.881561,8.825750 318.551544,13.341147 327.082092,18.106531 
	C351.027802,31.483206 374.893250,45.003548 398.841827,58.375019 
	C417.877655,69.003494 437.016724,79.447006 456.060913,90.060638 
	C484.516937,105.919632 512.989746,121.750404 541.322937,137.826691 
	C549.332520,142.371338 558.357666,145.660538 563.505981,153.882080 
	C533.049622,171.102859 502.947845,188.271683 472.813965,205.383896 
	C470.857513,206.494888 468.653687,207.170273 466.277832,207.819717 
	C464.705170,205.647156 463.439606,203.689575 462.131195,201.761078 
	C422.294037,143.045242 367.007599,110.764709 296.196930,106.333580 
	C257.830597,103.932716 221.126877,111.961365 187.493118,130.775696 
	C118.817787,169.191879 81.482323,228.078461 76.310547,306.608368 
	C74.027657,341.272400 81.395119,374.485687 96.213257,405.971313 
	C97.898232,409.551544 99.461601,413.188995 100.955841,417.132690 
	C69.797134,435.252075 38.771488,453.051880 7.694356,470.761322 
	C6.760132,471.293732 5.287238,470.880859 4.050751,470.933960 
	C4.036023,470.959198 4.093703,470.967041 4.088752,470.640930 
	C3.700853,469.806732 3.317906,469.298645 2.709148,468.490173 
	C1.988891,468.126526 1.494445,468.063263 1.000000,468.000000 
z"/>
<path fill="#00599C" opacity="1.000000" stroke="none" 
	d="
M466.564941,208.048248 
	C468.653687,207.170273 470.857513,206.494888 472.813965,205.383896 
	C502.947845,188.271683 533.049622,171.102859 563.795349,154.095581 
	C566.621216,157.162674 568.810608,160.081345 571.000000,163.000000 
	C571.000000,264.687561 571.000000,366.375122 570.677734,468.348145 
	C569.262085,470.100342 568.168640,471.567078 566.702393,473.010681 
	C557.114075,468.105713 547.841370,463.328156 538.694397,458.320984 
	C517.153137,446.529083 495.687317,434.599304 474.138306,422.821655 
	C472.322296,421.829102 470.111206,421.559479 468.038879,420.599792 
	C467.310913,419.599670 466.727234,418.773132 465.930145,418.334045 
	C437.167389,402.490082 408.389038,386.674530 379.588593,370.899200 
	C378.495392,370.300385 377.162323,370.139435 375.756989,369.505524 
	C374.248749,368.260986 373.015106,367.121124 371.587067,366.333893 
	C341.023010,349.483948 310.437134,332.673523 280.082397,315.601837 
	C296.186859,306.255829 312.077148,297.185638 327.938293,288.064697 
	C343.642609,279.033936 359.317505,269.952026 375.365845,260.920898 
	C376.187500,260.781525 376.684479,260.676697 377.104645,260.437134 
	C406.098480,243.906067 435.092133,227.374649 464.049713,210.780243 
	C465.073700,210.193436 465.734741,208.973251 466.564941,208.048248 
z"/>
<path fill="#004482" opacity="1.000000" stroke="none" 
	d="
M468.083649,420.954010 
	C470.111206,421.559479 472.322296,421.829102 474.138306,422.821655 
	C495.687317,434.599304 517.153137,446.529083 538.694397,458.320984 
	C547.841370,463.328156 557.114075,468.105713 566.650024,473.359985 
	C563.872009,480.428619 557.989685,484.143616 551.910767,487.541718 
	C536.491394,496.161102 520.957703,504.576447 505.558075,513.230591 
	C480.083679,527.546326 454.703796,542.030212 429.235901,556.357605 
	C411.532410,566.317078 393.738068,576.114929 376.002441,586.017395 
	C350.928833,600.016968 325.864288,614.033020 300.832672,628.107361 
	C299.703308,628.742310 298.935944,630.021057 298.000000,631.000000 
	C290.312408,631.000000 282.624847,631.000000 274.521851,630.640991 
	C272.910095,629.459045 271.773468,628.527771 270.508026,627.830200 
	C260.245544,622.173218 249.900497,616.663818 239.691177,610.913147 
	C214.098831,596.497742 188.604904,581.907410 162.994339,567.524719 
	C142.274811,555.888733 121.405937,544.518860 100.669907,532.912048 
	C73.747787,517.842590 46.864021,502.704010 20.026094,487.485229 
	C13.126105,483.572510 6.255543,479.443481 4.065479,470.908691 
	C5.287238,470.880859 6.760132,471.293732 7.694356,470.761322 
	C38.771488,453.051880 69.797134,435.252075 101.262093,417.292358 
	C102.248741,417.942657 102.833168,418.747864 103.354279,419.592102 
	C149.334030,494.084961 215.818863,530.095764 303.476654,524.983948 
	C344.402771,522.597351 380.988403,507.466187 413.587311,482.712677 
	C435.880493,465.784668 453.675842,444.856110 468.083649,420.954010 
z"/>
<path fill="#000000" opacity="1.000000" stroke="none" 
	d="
M4.050751,470.933960 
	C6.255543,479.443481 13.126105,483.572510 20.026094,487.485229 
	C46.864021,502.704010 73.747787,517.842590 100.669907,532.912048 
	C121.405937,544.518860 142.274811,555.888733 162.994339,567.524719 
	C188.604904,581.907410 214.098831,596.497742 239.691177,610.913147 
	C249.900497,616.663818 260.245544,622.173218 270.508026,627.830200 
	C271.773468,628.527771 272.910095,629.459045 274.053223,630.640991 
	C183.091370,631.000000 92.182732,631.000000 1.000000,631.000000 
	C1.000000,576.979431 1.000000,522.958374 1.000000,468.468658 
	C1.494445,468.063263 1.988891,468.126526 2.738582,468.830322 
	C3.360458,469.969604 3.727090,470.468323 4.093712,470.967041 
	C4.093703,470.967041 4.036023,470.959198 4.050751,470.933960 
z"/>
<path fill="#000000" opacity="1.000000" stroke="none" 
	d="
M298.468658,631.000000 
	C298.935944,630.021057 299.703308,628.742310 300.832672,628.107361 
	C325.864288,614.033020 350.928833,600.016968 376.002441,586.017395 
	C393.738068,576.114929 411.532410,566.317078 429.235901,556.357605 
	C454.703796,542.030212 480.083679,527.546326 505.558075,513.230591 
	C520.957703,504.576447 536.491394,496.161102 551.910767,487.541718 
	C557.989685,484.143616 563.872009,480.428619 567.022827,473.383087 
	C568.168640,471.567078 569.262085,470.100342 570.677734,468.816772 
	C571.000000,522.945679 571.000000,576.891296 571.000000,631.000000 
	C480.312500,631.000000 389.624908,631.000000 298.468658,631.000000 
z"/>
<path fill="#000000" opacity="1.000000" stroke="none" 
	d="
M571.000000,162.531342 
	C568.810608,160.081345 566.621216,157.162674 564.142578,154.030518 
	C558.357666,145.660538 549.332520,142.371338 541.322937,137.826691 
	C512.989746,121.750404 484.516937,105.919632 456.060913,90.060638 
	C437.016724,79.447006 417.877655,69.003494 398.841827,58.375019 
	C374.893250,45.003548 351.027802,31.483206 327.082092,18.106531 
	C318.551544,13.341147 309.881561,8.825750 301.299957,4.150905 
	C299.900421,3.388530 298.629547,2.389957 297.649597,1.250277 
	C388.908417,1.000000 479.816803,1.000000 571.000000,1.000000 
	C571.000000,54.687248 571.000000,108.374969 571.000000,162.531342 
z"/>
<path fill="#000000" opacity="1.000000" stroke="none" 
	d="
M272.531342,1.000001 
	C272.563995,1.701196 272.298126,2.708059 271.667297,3.059204 
	C252.038040,13.985356 232.321198,24.754786 212.726105,35.741455 
	C184.210068,51.729958 155.813492,67.931534 127.296982,83.919167 
	C108.997513,94.178658 90.513603,104.109367 72.222374,114.383293 
	C52.517773,125.451073 32.813232,136.532776 13.418980,148.127472 
	C9.596220,150.412872 7.142902,155.024734 4.147014,158.637482 
	C3.134230,159.858795 2.396336,161.308060 1.266412,162.326569 
	C1.000000,108.387596 1.000000,54.775188 1.000000,1.000000 
	C91.354164,1.000000 181.708420,1.000000 272.531342,1.000001 
z"/>
<path fill="#FEFFFF" opacity="1.000000" stroke="none" 
	d="
M468.038879,420.599792 
	C453.675842,444.856110 435.880493,465.784668 413.587311,482.712677 
	C380.988403,507.466187 344.402771,522.597351 303.476654,524.983948 
	C215.818863,530.095764 149.334030,494.084961 103.354279,419.592102 
	C102.833168,418.747864 102.248741,417.942657 101.387604,416.959564 
	C99.461601,413.188995 97.898232,409.551544 96.213257,405.971313 
	C81.395119,374.485687 74.027657,341.272400 76.310547,306.608368 
	C81.482323,228.078461 118.817787,169.191879 187.493118,130.775696 
	C221.126877,111.961365 257.830597,103.932716 296.196930,106.333580 
	C367.007599,110.764709 422.294037,143.045242 462.131195,201.761078 
	C463.439606,203.689575 464.705170,205.647156 466.277832,207.819702 
	C465.734741,208.973251 465.073700,210.193436 464.049713,210.780243 
	C435.092133,227.374649 406.098480,243.906067 377.104645,260.437134 
	C376.684479,260.676697 376.187500,260.781525 375.287964,260.591125 
	C351.343079,222.399155 305.813568,203.541245 262.519257,213.706894 
	C208.676941,226.349243 174.001282,277.224121 182.235199,331.913879 
	C183.938553,343.227661 186.736359,354.369171 193.337570,364.431366 
	C193.820663,365.813507 194.214386,366.909607 194.799637,367.891632 
	C213.349609,399.017365 240.693542,416.459900 276.649506,420.616577 
	C314.863800,425.034302 357.191437,403.410553 375.941040,369.774414 
	C377.162323,370.139435 378.495392,370.300385 379.588593,370.899200 
	C408.389038,386.674530 437.167389,402.490082 465.930145,418.334045 
	C466.727234,418.773132 467.310913,419.599670 468.038879,420.599792 
z"/>
<path fill="#004482" opacity="1.000000" stroke="none" 
	d="
M4.088761,470.640930 
	C3.727090,470.468323 3.360458,469.969604 2.964393,469.130737 
	C3.317906,469.298645 3.700853,469.806732 4.088761,470.640930 
z"/>
<path fill="#659AD2" opacity="1.000000" stroke="none" 
	d="
M193.337463,364.092163 
	C186.736359,354.369171 183.938553,343.227661 182.235199,331.913879 
	C174.001282,277.224121 208.676941,226.349243 262.519257,213.706894 
	C305.813568,203.541245 351.343079,222.399155 374.927429,260.562805 
	C359.317505,269.952026 343.642609,279.033936 327.938293,288.064697 
	C312.077148,297.185638 296.186859,306.255829 279.750061,315.703613 
	C254.393768,330.188446 229.612366,344.345490 204.782791,358.417572 
	C201.083786,360.513977 197.158218,362.210602 193.337463,364.092163 
z"/>
<path fill="#014482" opacity="1.000000" stroke="none" 
	d="
M193.337585,364.431396 
	C197.158218,362.210602 201.083786,360.513977 204.782791,358.417572 
	C229.612366,344.345490 254.393768,330.188446 279.523132,315.957214 
	C310.437134,332.673523 341.023010,349.483948 371.587067,366.333893 
	C373.015106,367.121124 374.248749,368.260986 375.756989,369.505524 
	C357.191437,403.410553 314.863800,425.034302 276.649506,420.616577 
	C240.693542,416.459900 213.349609,399.017365 194.799637,367.891632 
	C194.214386,366.909607 193.820663,365.813507 193.337585,364.431396 
z"/>
</svg>